<svg xmlns="http://www.w3.org/2000/svg" width="30" height="28" fill="none" viewBox="0 0 30 28"><g clip-path="url(#clip0_634_103134)"><path fill="#FFFC00" d="M10.8572 3.60279V5.83333H18.8572V1.36019C18.8572 0.685551 18.2028 0.204482 17.5589 0.405711L11.9098 2.17107C11.2836 2.36676 10.8572 2.94671 10.8572 3.60279Z"/><path fill="url(#paint0_linear_634_103134)" d="M10.8572 3.60279V5.83333H18.8572V1.36019C18.8572 0.685551 18.2028 0.204482 17.5589 0.405711L11.9098 2.17107C11.2836 2.36676 10.8572 2.94671 10.8572 3.60279Z" opacity=".3"/><path stroke="url(#paint1_linear_634_103134)" stroke-opacity=".3" stroke-width=".5" d="M11.1072 5.58333V3.60279C11.1072 3.05605 11.4625 2.57276 11.9843 2.40969L17.6335 0.644331C18.1164 0.49341 18.6072 0.854211 18.6072 1.36019V5.58333H11.1072Z"/><path fill="url(#paint2_linear_634_103134)" d="M10.7817 5.8729C10.7817 4.74965 10.7817 4.94382 10.7817 4.15629C10.7817 3.21015 10.7906 2.57941 11.9555 2.20087C13.9556 1.55087 16.8949 0.601554 17.5 0.399835C18.1051 0.198116 18.8556 0.499825 18.8556 1.44983C18.8556 2.44982 18.86 5.83983 18.86 5.83983L10.7817 5.8729Z"/><path fill="url(#paint3_radial_634_103134)" d="M10.7817 5.8729C10.7817 4.74965 10.7817 4.94382 10.7817 4.15629C10.7817 3.21015 10.7906 2.57941 11.9555 2.20087C13.9556 1.55087 16.8949 0.601554 17.5 0.399835C18.1051 0.198116 18.8556 0.499825 18.8556 1.44983C18.8556 2.44982 18.86 5.83983 18.86 5.83983L10.7817 5.8729Z"/><path fill="url(#paint4_linear_634_103134)" d="M10.7817 5.8729C10.7817 4.74965 10.7817 4.94382 10.7817 4.15629C10.7817 3.21015 10.7906 2.57941 11.9555 2.20087C13.9556 1.55087 16.8949 0.601554 17.5 0.399835C18.1051 0.198116 18.8556 0.499825 18.8556 1.44983C18.8556 2.44982 18.86 5.83983 18.86 5.83983L10.7817 5.8729Z"/><g filter="url(#filter0_f_634_103134)" opacity=".4"><path fill="#000" d="M24.5714 28.0002V16.3335H5.14282V28.0002H24.5714Z"/></g><path fill="url(#paint5_linear_634_103134)" fill-rule="evenodd" d="M7.49607 13.461C7.93033 13.1322 8.21173 12.6406 8.27525 12.0996L8.80354 7.60027C8.92183 6.59284 9.77555 5.8335 10.7899 5.8335H18.9244C19.9387 5.8335 20.7925 6.59284 20.9107 7.60027L21.439 12.0996C21.5026 12.6406 21.7839 13.1322 22.2182 13.461L23.3358 14.3071C24.834 15.4413 25.7143 17.2118 25.7143 19.0909V26.8335H14.8571H4V19.0909C4 17.2118 4.8803 15.4413 6.37846 14.3071L7.49607 13.461Z" clip-rule="evenodd"/><path fill="url(#paint6_linear_634_103134)" fill-rule="evenodd" d="M7.49607 13.461C7.93033 13.1322 8.21173 12.6406 8.27525 12.0996L8.80354 7.60027C8.92183 6.59284 9.77555 5.8335 10.7899 5.8335H18.9244C19.9387 5.8335 20.7925 6.59284 20.9107 7.60027L21.439 12.0996C21.5026 12.6406 21.7839 13.1322 22.2182 13.461L23.3358 14.3071C24.834 15.4413 25.7143 17.2118 25.7143 19.0909V26.8335H14.8571H4V19.0909C4 17.2118 4.8803 15.4413 6.37846 14.3071L7.49607 13.461Z" clip-rule="evenodd"/><path fill="url(#paint7_linear_634_103134)" fill-rule="evenodd" d="M7.49607 13.4674C7.93033 13.1386 8.21173 12.6469 8.27525 12.106L8.80354 7.60662C8.92183 6.59919 9.77555 5.83984 10.7899 5.83984H18.9244C19.9387 5.83984 20.7925 6.59919 20.9107 7.60662L21.439 12.106C21.5026 12.6469 21.7839 13.1386 22.2182 13.4674L23.3358 14.3134C24.834 15.4476 25.7143 17.2181 25.7143 19.0972V26.8398H14.8571H4V19.0972C4 17.2181 4.8803 15.4476 6.37846 14.3134L7.49607 13.4674Z" clip-rule="evenodd"/><path fill="url(#paint8_linear_634_103134)" fill-rule="evenodd" d="M7.49607 13.4674C7.93033 13.1386 8.21173 12.6469 8.27525 12.106L8.80354 7.60662C8.92183 6.59919 9.77555 5.83984 10.7899 5.83984H18.9244C19.9387 5.83984 20.7925 6.59919 20.9107 7.60662L21.439 12.106C21.5026 12.6469 21.7839 13.1386 22.2182 13.4674L23.3358 14.3134C24.834 15.4476 25.7143 17.2181 25.7143 19.0972V26.8398H14.8571H4V19.0972C4 17.2181 4.8803 15.4476 6.37846 14.3134L7.49607 13.4674Z" clip-rule="evenodd"/><g filter="url(#filter1_f_634_103134)"><path stroke="#353535" stroke-width="3" d="M12 7V14.9459L7.42859 17.5946V23.3333"/></g><g filter="url(#filter2_f_634_103134)" opacity=".2"><path stroke="#fff" d="M20.7145 5.8335L22.308 16.8494L25.2859 18.8843V27.6289"/></g><rect width="21.714" height="7" x="4" y="21" fill="#FFFC00"/><path fill="url(#paint9_linear_634_103134)" d="M25.5 21L4 21C4 21 4.00004 24.6379 4.00004 26.4776V28L26 28L25.5 21Z" opacity=".44"/><rect width="9.143" height="7" fill="url(#paint10_linear_634_103134)" opacity=".45" transform="matrix(-1 0 0 1 25.7144 21)"/><g filter="url(#filter3_f_634_103134)" opacity=".4"><path stroke="#fff" d="M23.4286 26.8333V17.5"/></g><line x1="4" x2="25.714" y1="20.75" y2="20.75" stroke="#fff" stroke-width=".5" opacity=".12"/><path fill="url(#paint11_linear_634_103134)" fill-rule="evenodd" d="M7.39847 13.4924C7.78539 13.1757 8.03964 12.7255 8.11112 12.2306L8.76342 7.71411C8.90553 6.73019 9.74875 6 10.7429 6H18.9244C19.9387 6 20.7925 6.75935 20.9107 7.76677L21.439 12.2661C21.5026 12.8071 21.7839 13.2987 22.2182 13.6275L23.3358 14.4736C24.834 15.6078 25.7143 17.3783 25.7143 19.2574V21H14.8571H4L4 19.1167C4 17.3175 4.80735 15.6133 6.19955 14.4738L7.39847 13.4924Z" clip-rule="evenodd"/><path fill="url(#paint12_linear_634_103134)" fill-opacity=".45" fill-rule="evenodd" d="M7.39847 13.4924C7.78539 13.1757 8.03964 12.7255 8.11112 12.2306L8.76342 7.71411C8.90553 6.73019 9.74875 6 10.7429 6H18.9244C19.9387 6 20.7925 6.75935 20.9107 7.76677L21.439 12.2661C21.5026 12.8071 21.7839 13.2987 22.2182 13.6275L23.3358 14.4736C24.834 15.6078 25.7143 17.3783 25.7143 19.2574V21H14.8571H4L4 19.1167C4 17.3175 4.80735 15.6133 6.19955 14.4738L7.39847 13.4924Z" clip-rule="evenodd"/><path fill="url(#paint13_linear_634_103134)" fill-rule="evenodd" d="M7.39847 13.4924C7.78539 13.1757 8.03964 12.7255 8.11112 12.2306L8.76342 7.71411C8.90553 6.73019 9.74875 6 10.7429 6H18.9244C19.9387 6 20.7925 6.75935 20.9107 7.76677L21.439 12.2661C21.5026 12.8071 21.7839 13.2987 22.2182 13.6275L23.3358 14.4736C24.834 15.6078 25.7143 17.3783 25.7143 19.2574V21H14.8571H4L4 19.1167C4 17.3175 4.80735 15.6133 6.19955 14.4738L7.39847 13.4924Z" clip-rule="evenodd"/></g><defs><filter id="filter0_f_634_103134" width="31.429" height="23.666" x="-.857" y="10.334" color-interpolation-filters="sRGB" filterUnits="userSpaceOnUse"><feFlood flood-opacity="0" result="BackgroundImageFix"/><feBlend in="SourceGraphic" in2="BackgroundImageFix" mode="normal" result="shape"/><feGaussianBlur result="effect1_foregroundBlur_634_103134" stdDeviation="3"/></filter><filter id="filter1_f_634_103134" width="15.571" height="24.334" x="1.929" y="3" color-interpolation-filters="sRGB" filterUnits="userSpaceOnUse"><feFlood flood-opacity="0" result="BackgroundImageFix"/><feBlend in="SourceGraphic" in2="BackgroundImageFix" mode="normal" result="shape"/><feGaussianBlur result="effect1_foregroundBlur_634_103134" stdDeviation="2"/></filter><filter id="filter2_f_634_103134" width="13.566" height="29.867" x="16.22" y="1.762" color-interpolation-filters="sRGB" filterUnits="userSpaceOnUse"><feFlood flood-opacity="0" result="BackgroundImageFix"/><feBlend in="SourceGraphic" in2="BackgroundImageFix" mode="normal" result="shape"/><feGaussianBlur result="effect1_foregroundBlur_634_103134" stdDeviation="2"/></filter><filter id="filter3_f_634_103134" width="9" height="17.334" x="18.929" y="13.5" color-interpolation-filters="sRGB" filterUnits="userSpaceOnUse"><feFlood flood-opacity="0" result="BackgroundImageFix"/><feBlend in="SourceGraphic" in2="BackgroundImageFix" mode="normal" result="shape"/><feGaussianBlur result="effect1_foregroundBlur_634_103134" stdDeviation="2"/></filter><linearGradient id="paint0_linear_634_103134" x1="13.829" x2="14.496" y1="-.93" y2="6.511" gradientUnits="userSpaceOnUse"><stop/><stop offset="1" stop-color="#fff" stop-opacity="0"/></linearGradient><linearGradient id="paint1_linear_634_103134" x1="14.857" x2="14.857" y1="-.93" y2="5.157" gradientUnits="userSpaceOnUse"><stop stop-color="#fff"/><stop offset="1" stop-color="#fff" stop-opacity="0"/></linearGradient><linearGradient id="paint2_linear_634_103134" x1="22.5" x2="14.495" y1="5" y2="4.904" gradientUnits="userSpaceOnUse"><stop offset=".288" stop-color="#fff" stop-opacity=".77"/><stop offset=".696" stop-color="#8C8C8C" stop-opacity="0"/><stop offset=".877" stop-opacity="0"/></linearGradient><radialGradient id="paint3_radial_634_103134" cx="0" cy="0" r="1" gradientTransform="translate(19 3.49983) rotate(176.987) scale(9.51315 16.0513)" gradientUnits="userSpaceOnUse"><stop offset=".791" stop-color="#fff" stop-opacity="0"/><stop offset="1" stop-color="#fff"/></radialGradient><linearGradient id="paint4_linear_634_103134" x1="15.5" x2="16.575" y1="-1.5" y2="2.479" gradientUnits="userSpaceOnUse"><stop offset=".036" stop-color="#fff"/><stop offset=".813" stop-color="#fff" stop-opacity="0"/></linearGradient><linearGradient id="paint5_linear_634_103134" x1="7.341" x2="24.875" y1="12.156" y2="13.038" gradientUnits="userSpaceOnUse"><stop stop-color="#333"/><stop offset=".556" stop-color="#565254"/><stop offset=".984" stop-color="#7D767A"/></linearGradient><linearGradient id="paint6_linear_634_103134" x1="4.835" x2="13.948" y1="12.156" y2="14.783" gradientUnits="userSpaceOnUse"><stop stop-color="#7D767A"/><stop offset="1" stop-color="#605A5D" stop-opacity="0"/></linearGradient><linearGradient id="paint7_linear_634_103134" x1="2.5" x2="14.225" y1="6" y2="15.829" gradientUnits="userSpaceOnUse"><stop offset=".021" stop-color="#fff"/><stop offset=".844" stop-color="#605A5D" stop-opacity="0"/></linearGradient><linearGradient id="paint8_linear_634_103134" x1="16" x2="35" y1="15" y2="5.5" gradientUnits="userSpaceOnUse"><stop offset=".266" stop-color="#fff" stop-opacity="0"/><stop offset="1" stop-color="#fff"/></linearGradient><linearGradient id="paint9_linear_634_103134" x1="4" x2="25.415" y1="23" y2="23.68" gradientUnits="userSpaceOnUse"><stop stop-color="#fff"/><stop offset=".214" stop-opacity=".75"/><stop offset=".651" stop-opacity=".56"/><stop offset="1" stop-opacity="0"/></linearGradient><linearGradient id="paint10_linear_634_103134" x1="-.786" x2="7.714" y1="2.5" y2="3" gradientUnits="userSpaceOnUse"><stop stop-color="#fff"/><stop offset="1" stop-color="#454545" stop-opacity="0"/></linearGradient><linearGradient id="paint11_linear_634_103134" x1="-5" x2="16.549" y1="2.5" y2="18.604" gradientUnits="userSpaceOnUse"><stop stop-color="#fff"/><stop offset=".677" stop-color="#605A5D" stop-opacity="0"/></linearGradient><linearGradient id="paint12_linear_634_103134" x1="6.5" x2="37" y1="15" y2="14.5" gradientUnits="userSpaceOnUse"><stop offset=".448" stop-color="#444" stop-opacity="0"/><stop offset="1" stop-color="#969696"/></linearGradient><linearGradient id="paint13_linear_634_103134" x1="8" x2="-.5" y1="17.5" y2="18" gradientUnits="userSpaceOnUse"><stop stop-color="#737373" stop-opacity="0"/><stop offset="1" stop-color="#fff"/></linearGradient><clipPath id="clip0_634_103134"><rect width="30" height="28" fill="#fff"/></clipPath></defs></svg>