<svg xmlns="http://www.w3.org/2000/svg" width="25" height="28" fill="none" viewBox="0 0 25 28"><g clip-path="url(#clip0_4385_13428)"><g filter="url(#filter0_f_4385_13428)" opacity=".3"><path fill="#000" d="M20 38V21H5V38H20Z"/></g><g filter="url(#filter1_f_4385_13428)" opacity=".4"><path fill-rule="evenodd" stroke="#fff" d="M16 40V13V13V40V40Z" clip-rule="evenodd"/></g><g filter="url(#filter2_f_4385_13428)" opacity=".2"><path fill="#fff" fill-rule="evenodd" d="M9 39V12H10V39H9Z" clip-rule="evenodd"/></g><g filter="url(#filter3_f_4385_13428)"><line x1="12.828" x2="7.653" y1=".354" y2="5.528" stroke="url(#paint0_linear_4385_13428)"/></g><g filter="url(#filter4_f_4385_13428)"><line x2="7.318" y1="-.5" y2="-.5" stroke="url(#paint1_linear_4385_13428)" transform="matrix(0.707107 0.707107 0.707107 -0.707107 12.4741 0)"/></g><path stroke="url(#paint2_linear_4385_13428)" stroke-width="2" d="M12.5 0L12.5 8.5"/><path fill="url(#paint3_linear_4385_13428)" d="M21.3 28L21.3402 12.0101C21.3458 9.797 19.5533 8 17.3402 8H7.94143C5.72657 8 3.93335 9.7998 3.94145 12.0146L3.99996 28H21.3Z"/><path fill="url(#paint4_linear_4385_13428)" d="M21.3 28L21.3402 12.0101C21.3458 9.797 19.5533 8 17.3402 8H7.94143C5.72657 8 3.93335 9.7998 3.94145 12.0146L3.99996 28H21.3Z"/><path fill="url(#paint5_linear_4385_13428)" fill-rule="evenodd" d="M4.00684 11.5H21.3105C21.2906 10.9958 21.1774 10.5156 20.9876 10.0762C20.4229 8.8492 19.1826 8 17.747 8H7.49997C6.43896 8 5.4869 8.46908 4.84066 9.21171C4.34657 9.84896 4.0408 10.6396 4.00684 11.5Z" clip-rule="evenodd"/><path fill="url(#paint6_linear_4385_13428)" fill-opacity=".4" fill-rule="evenodd" d="M4.00684 11.5H21.3105C21.2906 10.9958 21.1774 10.5156 20.9876 10.0762C20.4229 8.8492 19.1826 8 17.747 8H7.49997C6.43896 8 5.4869 8.46908 4.84066 9.21171C4.34657 9.84896 4.0408 10.6396 4.00684 11.5Z" clip-rule="evenodd"/><path fill="url(#paint7_linear_4385_13428)" fill-opacity=".6" fill-rule="evenodd" d="M4.00684 11.5H21.3105C21.2906 10.9958 21.1774 10.5156 20.9876 10.0762C20.4229 8.8492 19.1826 8 17.747 8H7.49997C6.43896 8 5.4869 8.46908 4.84066 9.21171C4.34657 9.84896 4.0408 10.6396 4.00684 11.5Z" clip-rule="evenodd"/><path fill="url(#paint8_linear_4385_13428)" fill-opacity=".5" fill-rule="evenodd" d="M4.00684 11.5H21.3105C21.2906 10.9958 21.1774 10.5156 20.9876 10.0762C20.4229 8.8492 19.1826 8 17.747 8H7.49997C6.43896 8 5.4869 8.46908 4.84066 9.21171C4.34657 9.84896 4.0408 10.6396 4.00684 11.5Z" clip-rule="evenodd"/><circle cx="12.9" cy="21.5" r="3.5" fill="url(#paint9_linear_4385_13428)"/><circle cx="12.9" cy="21.5" r="3.75" stroke="url(#paint10_linear_4385_13428)" stroke-opacity=".8" stroke-width=".5"/><g filter="url(#filter5_f_4385_13428)" opacity=".2"><circle cx="14.4" cy="20" r="1" fill="#fff"/></g><path fill="#414141" d="M12.8999 14L14.3999 16H11.3999L12.8999 14Z"/></g><defs><filter id="filter0_f_4385_13428" width="27" height="29" x="-1" y="15" color-interpolation-filters="sRGB" filterUnits="userSpaceOnUse"><feFlood flood-opacity="0" result="BackgroundImageFix"/><feBlend in="SourceGraphic" in2="BackgroundImageFix" mode="normal" result="shape"/><feGaussianBlur result="effect1_foregroundBlur_4385_13428" stdDeviation="3"/></filter><filter id="filter1_f_4385_13428" width="9" height="35" x="11.5" y="9" color-interpolation-filters="sRGB" filterUnits="userSpaceOnUse"><feFlood flood-opacity="0" result="BackgroundImageFix"/><feBlend in="SourceGraphic" in2="BackgroundImageFix" mode="normal" result="shape"/><feGaussianBlur result="effect1_foregroundBlur_4385_13428" stdDeviation="2"/></filter><filter id="filter2_f_4385_13428" width="11" height="37" x="4" y="7" color-interpolation-filters="sRGB" filterUnits="userSpaceOnUse"><feFlood flood-opacity="0" result="BackgroundImageFix"/><feBlend in="SourceGraphic" in2="BackgroundImageFix" mode="normal" result="shape"/><feGaussianBlur result="effect1_foregroundBlur_4385_13428" stdDeviation="2.5"/></filter><filter id="filter3_f_4385_13428" width="9.881" height="9.881" x="5.3" y="-2" color-interpolation-filters="sRGB" filterUnits="userSpaceOnUse"><feFlood flood-opacity="0" result="BackgroundImageFix"/><feBlend in="SourceGraphic" in2="BackgroundImageFix" mode="normal" result="shape"/><feGaussianBlur result="effect1_foregroundBlur_4385_13428" stdDeviation="1"/></filter><filter id="filter4_f_4385_13428" width="9.881" height="9.881" x="9.767" y="-2" color-interpolation-filters="sRGB" filterUnits="userSpaceOnUse"><feFlood flood-opacity="0" result="BackgroundImageFix"/><feBlend in="SourceGraphic" in2="BackgroundImageFix" mode="normal" result="shape"/><feGaussianBlur result="effect1_foregroundBlur_4385_13428" stdDeviation="1"/></filter><filter id="filter5_f_4385_13428" width="4" height="4" x="12.4" y="18" color-interpolation-filters="sRGB" filterUnits="userSpaceOnUse"><feFlood flood-opacity="0" result="BackgroundImageFix"/><feBlend in="SourceGraphic" in2="BackgroundImageFix" mode="normal" result="shape"/><feGaussianBlur result="effect1_foregroundBlur_4385_13428" stdDeviation=".5"/></filter><linearGradient id="paint0_linear_4385_13428" x1="11.151" x2="8.051" y1="1.323" y2="3.577" gradientUnits="userSpaceOnUse"><stop stop-color="#E3182D"/><stop offset="1" stop-color="#E3182D" stop-opacity="0"/></linearGradient><linearGradient id="paint1_linear_4385_13428" x1="1.871" x2="5.657" y1="0" y2=".599" gradientUnits="userSpaceOnUse"><stop stop-color="#E3182D"/><stop offset="1" stop-color="#E3182D" stop-opacity="0"/></linearGradient><linearGradient id="paint2_linear_4385_13428" x1="-968338" x2="-968338" y1="-5.542" y2="5.395" gradientUnits="userSpaceOnUse"><stop stop-color="#E3182D"/><stop offset="1" stop-color="#E3182D" stop-opacity=".2"/></linearGradient><linearGradient id="paint3_linear_4385_13428" x1="3.575" x2="21" y1="14.076" y2="14.076" gradientUnits="userSpaceOnUse"><stop stop-color="#333"/><stop offset=".556" stop-color="#565254"/><stop offset=".984" stop-color="#7D767A"/></linearGradient><linearGradient id="paint4_linear_4385_13428" x1="3.571" x2="8.671" y1="16.507" y2="16.507" gradientUnits="userSpaceOnUse"><stop stop-color="#7D767A"/><stop offset="1" stop-color="#605A5D" stop-opacity="0"/></linearGradient><linearGradient id="paint5_linear_4385_13428" x1="12.626" x2="12.626" y1="11.938" y2="7.125" gradientUnits="userSpaceOnUse"><stop stop-color="#333"/><stop offset=".793" stop-color="#605A5D"/></linearGradient><linearGradient id="paint6_linear_4385_13428" x1="12.627" x2="12.5" y1="5.5" y2="12" gradientUnits="userSpaceOnUse"><stop offset=".041" stop-color="#fff" stop-opacity=".74"/><stop offset=".855" stop-color="#fff" stop-opacity="0"/></linearGradient><linearGradient id="paint7_linear_4385_13428" x1="1.5" x2="7.5" y1="10.5" y2="11.5" gradientUnits="userSpaceOnUse"><stop stop-color="#fff"/><stop offset=".958" stop-color="#797979" stop-opacity="0"/></linearGradient><linearGradient id="paint8_linear_4385_13428" x1="23.5" x2="18" y1="10" y2="11" gradientUnits="userSpaceOnUse"><stop stop-color="#fff"/><stop offset="1" stop-color="#797979" stop-opacity="0"/></linearGradient><linearGradient id="paint9_linear_4385_13428" x1="9.4" x2="16.4" y1="25" y2="18" gradientUnits="userSpaceOnUse"><stop stop-color="#252525"/><stop offset="1" stop-color="#9A9A9A"/></linearGradient><linearGradient id="paint10_linear_4385_13428" x1="12.9" x2="12.9" y1="18" y2="25" gradientUnits="userSpaceOnUse"><stop stop-color="#303030"/><stop offset="1" stop-color="#A5A4A4"/></linearGradient><clipPath id="clip0_4385_13428"><rect width="28" height="28" fill="#fff" transform="translate(-1)"/></clipPath></defs></svg>