<svg xmlns="http://www.w3.org/2000/svg" width="28" height="28" fill="none" viewBox="0 0 28 28"><g clip-path="url(#clip0_635_104173)"><path fill="url(#paint0_linear_635_104173)" d="M7.6001 3C7.6001 1.34315 8.94324 0 10.6001 0H17.6001C19.257 0 20.6001 1.34315 20.6001 3V7H7.6001V3Z"/><path stroke="url(#paint1_linear_635_104173)" stroke-opacity=".16" stroke-width=".5" d="M10.6001 0.25H17.6001C19.1189 0.25 20.3501 1.48122 20.3501 3V6.75H7.8501V3C7.8501 1.48122 9.08131 0.25 10.6001 0.25Z"/><g filter="url(#filter0_f_635_104173)" opacity=".3"><path fill="#000" d="M21 35V7H7V35H21Z"/></g><path fill="url(#paint2_linear_635_104173)" d="M22 33.963V9C22 7.89543 21.1046 7 20 7H8C6.89543 7 6 7.89543 6 9V33.963H22Z"/><path fill="url(#paint3_linear_635_104173)" d="M22 33.963V9C22 7.89543 21.1046 7 20 7H8C6.89543 7 6 7.89543 6 9V33.963H22Z"/><path fill="url(#paint4_linear_635_104173)" d="M22 33.963V9C22 7.89543 21.1046 7 20 7H8C6.89543 7 6 7.89543 6 9V33.963H22Z"/><g style="mix-blend-mode:darken"><path fill="url(#paint5_linear_635_104173)" d="M6 33.963V9C6 7.89543 6.89543 7 8 7H20C21.1046 7 22 7.89543 22 9V33.963H6Z"/></g><g filter="url(#filter1_f_635_104173)"><line x1="13.5" x2="13.5" y1="18.704" y2="39.444" stroke="#353535" stroke-width="3"/></g><g filter="url(#filter2_i_635_104173)"><path fill="#000" fill-opacity=".01" d="M22 33.963V9C22 7.89543 21.1046 7 20 7H8C6.89543 7 6 7.89543 6 9V33.963H22Z"/></g><path fill="#000" d="M6 9C6 7.89543 6.89543 7 8 7H20C21.1046 7 22 7.89543 22 9V17.5H6L6 9Z" opacity=".08"/><mask id="mask0_635_104173" style="mask-type:alpha" width="13" height="7" x="8" y="0" maskUnits="userSpaceOnUse"><path fill="#C4C4C4" d="M8 0H16.9477C17.6289 0 18.2898 0.231842 18.8217 0.657393L20.5 2V7H8V0Z"/></mask><g mask="url(#mask0_635_104173)"><g filter="url(#filter3_f_635_104173)"><path fill="#fff" fill-rule="evenodd" d="M16.4857 3.03448H11V2H16.4857C17.8743 2 19 2.84912 19 3.89655V7H17.6286V3.89655C17.6286 3.42044 17.1169 3.03448 16.4857 3.03448Z" clip-rule="evenodd"/></g></g><path fill="#fff" fill-rule="evenodd" d="M22 18H6V17.5H22V18Z" clip-rule="evenodd" opacity=".12"/><g filter="url(#filter4_f_635_104173)" opacity=".1"><path fill="#fff" fill-rule="evenodd" d="M17 37.3704V13.5186H18V37.3704H17Z" clip-rule="evenodd"/></g></g><defs><filter id="filter0_f_635_104173" width="26" height="40" x="1" y="1" color-interpolation-filters="sRGB" filterUnits="userSpaceOnUse"><feFlood flood-opacity="0" result="BackgroundImageFix"/><feBlend in="SourceGraphic" in2="BackgroundImageFix" mode="normal" result="shape"/><feGaussianBlur result="effect1_foregroundBlur_635_104173" stdDeviation="3"/></filter><filter id="filter1_f_635_104173" width="11" height="28.741" x="8" y="14.704" color-interpolation-filters="sRGB" filterUnits="userSpaceOnUse"><feFlood flood-opacity="0" result="BackgroundImageFix"/><feBlend in="SourceGraphic" in2="BackgroundImageFix" mode="normal" result="shape"/><feGaussianBlur result="effect1_foregroundBlur_635_104173" stdDeviation="2"/></filter><filter id="filter2_i_635_104173" width="17" height="26.963" x="6" y="7" color-interpolation-filters="sRGB" filterUnits="userSpaceOnUse"><feFlood flood-opacity="0" result="BackgroundImageFix"/><feBlend in="SourceGraphic" in2="BackgroundImageFix" mode="normal" result="shape"/><feColorMatrix in="SourceAlpha" result="hardAlpha" type="matrix" values="0 0 0 0 0 0 0 0 0 0 0 0 0 0 0 0 0 0 127 0"/><feOffset dx="1"/><feGaussianBlur stdDeviation="3.5"/><feComposite in2="hardAlpha" k2="-1" k3="1" operator="arithmetic"/><feColorMatrix type="matrix" values="0 0 0 0 1 0 0 0 0 1 0 0 0 0 1 0 0 0 0.1 0"/><feBlend in2="shape" mode="normal" result="effect1_innerShadow_635_104173"/></filter><filter id="filter3_f_635_104173" width="16" height="13" x="7" y="-2" color-interpolation-filters="sRGB" filterUnits="userSpaceOnUse"><feFlood flood-opacity="0" result="BackgroundImageFix"/><feBlend in="SourceGraphic" in2="BackgroundImageFix" mode="normal" result="shape"/><feGaussianBlur result="effect1_foregroundBlur_635_104173" stdDeviation="2"/></filter><filter id="filter4_f_635_104173" width="9" height="31.852" x="13" y="9.519" color-interpolation-filters="sRGB" filterUnits="userSpaceOnUse"><feFlood flood-opacity="0" result="BackgroundImageFix"/><feBlend in="SourceGraphic" in2="BackgroundImageFix" mode="normal" result="shape"/><feGaussianBlur result="effect1_foregroundBlur_635_104173" stdDeviation="2"/></filter><linearGradient id="paint0_linear_635_104173" x1="14.1" x2="14.1" y1="0" y2="7" gradientUnits="userSpaceOnUse"><stop stop-color="#EA9FAA"/><stop offset="1" stop-color="#FA7E90"/></linearGradient><linearGradient id="paint1_linear_635_104173" x1="14.1" x2="14.1" y1="0" y2="7" gradientUnits="userSpaceOnUse"><stop stop-color="#fff"/><stop offset="1" stop-color="#fff" stop-opacity="0"/></linearGradient><linearGradient id="paint2_linear_635_104173" x1="5.6" x2="22" y1="12.617" y2="12.617" gradientUnits="userSpaceOnUse"><stop stop-color="#333"/><stop offset=".556" stop-color="#565254"/><stop offset=".984" stop-color="#7D767A"/></linearGradient><linearGradient id="paint3_linear_635_104173" x1="5.2" x2="9.6" y1="14.864" y2="14.864" gradientUnits="userSpaceOnUse"><stop stop-color="#7D767A"/><stop offset="1" stop-color="#605A5D" stop-opacity="0"/></linearGradient><linearGradient id="paint4_linear_635_104173" x1="2" x2="14" y1="14.5" y2="14.5" gradientUnits="userSpaceOnUse"><stop stop-color="#DCDCDC"/><stop offset=".74" stop-color="#5F5F5F" stop-opacity="0"/></linearGradient><linearGradient id="paint5_linear_635_104173" x1="26" x2="14" y1="14.5" y2="14.5" gradientUnits="userSpaceOnUse"><stop stop-color="#DCDCDC"/><stop offset=".74" stop-color="#5F5F5F" stop-opacity="0"/></linearGradient><clipPath id="clip0_635_104173"><rect width="28" height="28" fill="#fff"/></clipPath></defs></svg>