<svg xmlns="http://www.w3.org/2000/svg" width="28" height="28" fill="none" viewBox="0 0 28 28"><g clip-path="url(#clip0_635_104189)"><g filter="url(#filter0_f_635_104189)" opacity=".4"><path fill="#000" d="M21.5686 28.6118V18.5591H6.53857V28.6118H21.5686Z"/></g><path fill="#E3182D" d="M14.0501 0C12.4844 0 11.5451 4.63972 11.5451 4.63972H16.5551C16.5551 4.63972 15.6157 0 14.0501 0Z"/><path fill="#E3182D" d="M6.37663 18.5589H21.7233C22.1724 21.153 22.4 23.7832 22.4 26.4253V28.6116H5.69995V26.4253C5.69995 23.7832 5.92747 21.153 6.37663 18.5589Z"/><path fill="url(#paint0_linear_635_104189)" d="M11.8072 4.63965H16.2924C16.7075 4.63965 17.0854 4.86141 17.2626 5.20904C19.4272 9.45406 20.925 13.9494 21.7231 18.5588H6.37646C7.17455 13.9494 8.67238 9.45406 10.837 5.20904C11.0142 4.8614 11.3921 4.63965 11.8072 4.63965Z"/><path fill="url(#paint1_linear_635_104189)" d="M11.8072 4.63965H16.2924C16.7075 4.63965 17.0854 4.86141 17.2626 5.20904C19.4272 9.45406 20.925 13.9494 21.7231 18.5588H6.37646C7.17455 13.9494 8.67238 9.45406 10.837 5.20904C11.0142 4.8614 11.3921 4.63965 11.8072 4.63965Z"/><path fill="url(#paint2_linear_635_104189)" d="M11.8072 4.63965H16.2924C16.7075 4.63965 17.0854 4.86141 17.2626 5.20904C19.4272 9.45406 20.925 13.9494 21.7231 18.5588H6.37646C7.17455 13.9494 8.67238 9.45406 10.837 5.20904C11.0142 4.8614 11.3921 4.63965 11.8072 4.63965Z"/><path fill="url(#paint3_linear_635_104189)" d="M21.7233 18.5591L6.37663 18.5591C5.92747 21.1532 5.69995 23.7834 5.69995 26.4255V28.6118H22.4V26.4255C22.4 23.7834 22.1724 21.1532 21.7233 18.5591Z" opacity=".44"/><path fill="url(#paint4_linear_635_104189)" d="M21.7233 18.5591L6.37663 18.5591C5.92747 21.1532 5.69995 23.7834 5.69995 26.4255V28.6118H22.4V26.4255C22.4 23.7834 22.1724 21.1532 21.7233 18.5591Z" opacity=".48"/><path fill="url(#paint5_linear_635_104189)" d="M11.5448 4.63972C11.5448 4.63972 12.4842 0 14.0498 0C15.6154 0 16.5548 4.63972 16.5548 4.63972H11.5448Z"/><path fill="url(#paint6_radial_635_104189)" d="M11.5448 4.63972C11.5448 4.63972 12.4842 0 14.0498 0C15.6154 0 16.5548 4.63972 16.5548 4.63972H11.5448Z"/><path fill="url(#paint7_linear_635_104189)" d="M11.5448 4.63972C11.5448 4.63972 12.4842 0 14.0498 0C15.6154 0 16.5548 4.63972 16.5548 4.63972H11.5448Z"/><g filter="url(#filter1_f_635_104189)" opacity=".5"><path stroke="#fff" d="M14.4669 5.7998C14.4669 5.7998 18.8778 15.4659 18.8778 22.3591C18.8778 24.361 18.8778 39.6002 18.8778 39.6002"/></g></g><defs><filter id="filter0_f_635_104189" width="27.03" height="22.053" x=".539" y="12.559" color-interpolation-filters="sRGB" filterUnits="userSpaceOnUse"><feFlood flood-opacity="0" result="BackgroundImageFix"/><feBlend in="SourceGraphic" in2="BackgroundImageFix" mode="normal" result="shape"/><feGaussianBlur result="effect1_foregroundBlur_635_104189" stdDeviation="3"/></filter><filter id="filter1_f_635_104189" width="13.366" height="42.008" x="10.012" y="1.592" color-interpolation-filters="sRGB" filterUnits="userSpaceOnUse"><feFlood flood-opacity="0" result="BackgroundImageFix"/><feBlend in="SourceGraphic" in2="BackgroundImageFix" mode="normal" result="shape"/><feGaussianBlur result="effect1_foregroundBlur_635_104189" stdDeviation="2"/></filter><linearGradient id="paint0_linear_635_104189" x1="11.127" x2="18.975" y1="10.053" y2="7.823" gradientUnits="userSpaceOnUse"><stop stop-color="#333"/><stop offset=".556" stop-color="#565254"/><stop offset=".984" stop-color="#888386"/></linearGradient><linearGradient id="paint1_linear_635_104189" x1="7.787" x2="11.483" y1="11.986" y2="13.316" gradientUnits="userSpaceOnUse"><stop stop-color="#999396"/><stop offset="1" stop-color="#605A5D" stop-opacity="0"/></linearGradient><linearGradient id="paint2_linear_635_104189" x1="6.117" x2="7.787" y1="18.559" y2="18.559" gradientUnits="userSpaceOnUse"><stop stop-color="#7A7477"/><stop offset="1" stop-color="#7A7477" stop-opacity="0"/></linearGradient><linearGradient id="paint3_linear_635_104189" x1="6.117" x2="21.548" y1="21.652" y2="23.003" gradientUnits="userSpaceOnUse"><stop stop-color="#fff"/><stop offset=".227"/><stop offset=".59" stop-opacity=".66"/><stop offset="1" stop-opacity="0"/></linearGradient><linearGradient id="paint4_linear_635_104189" x1="21.983" x2="16.978" y1="21.266" y2="21.716" gradientUnits="userSpaceOnUse"><stop stop-color="#fff" stop-opacity=".04"/><stop offset="1" stop-opacity="0"/></linearGradient><linearGradient id="paint5_linear_635_104189" x1="17.807" x2="14.534" y1="1.933" y2="3.259" gradientUnits="userSpaceOnUse"><stop stop-color="#fff"/><stop offset="1" stop-color="#fff" stop-opacity="0"/></linearGradient><radialGradient id="paint6_radial_635_104189" cx="0" cy="0" r="1" gradientTransform="translate(15.7198 3.86643) rotate(-164.473) scale(4.33314 7.31117)" gradientUnits="userSpaceOnUse"><stop offset=".761" stop-color="#fff" stop-opacity="0"/><stop offset="1" stop-color="#fff"/></radialGradient><linearGradient id="paint7_linear_635_104189" x1="14.467" x2="14.108" y1="-2.32" y2=".78" gradientUnits="userSpaceOnUse"><stop stop-color="#fff"/><stop offset="1" stop-color="#fff" stop-opacity="0"/></linearGradient><clipPath id="clip0_635_104189"><rect width="28" height="28" fill="#fff"/></clipPath></defs></svg>